<svg width="20" height="20" viewBox="0 0 20 20" xmlns="http://www.w3.org/2000/svg"><path d="M3.902 20h12.181A3.917 3.917 0 0020 16.083V3.908A3.918 3.918 0 0016.083 0H3.903A3.917 3.917 0 000 3.902v12.181A3.917 3.917 0 003.902 20zM16.083 1.667a2.25 2.25 0 012.245 2.1l.005.141v12.175a2.25 2.25 0 01-2.107 2.246l-.143.004H12.5v-5.958h2.075a.375.375 0 00.351-.258l.016-.067.225-1.917a.367.367 0 00-.305-.403l-.062-.005h-2.292V8.117c0-.69.182-1.177 1.106-1.222l.144-.003h.967a.358.358 0 00.353-.296l.005-.071V4.892a.358.358 0 00-.294-.353l-.064-.006H13.15a3.025 3.025 0 00-3.247 3.155l.014.179v1.858H8.333a.358.358 0 00-.32.297l-.005.07v1.916a.375.375 0 00.302.36l.065.007h1.542v5.958H3.908a2.25 2.25 0 01-2.237-2.108l-.004-.142V3.908a2.25 2.25 0 012.1-2.236l.141-.005h12.175z" fill-rule="nonzero"/></svg>
