<svg width="20" height="20" viewBox="0 0 27 27" xmlns="http://www.w3.org/2000/svg"><g fill-rule="evenodd"><path d="M24.469 18.563a5.913 5.913 0 01-5.907 5.906H8.438a5.913 5.913 0 01-5.906-5.906V8.438A5.913 5.913 0 018.437 2.53h10.126a5.913 5.913 0 015.906 5.907v10.125zM18.562 0H8.438A8.438 8.438 0 000 8.438v10.125A8.438 8.438 0 008.438 27h10.124A8.438 8.438 0 0027 18.563V8.438A8.438 8.438 0 0018.562 0z"/><path d="M13.5 17.719A4.225 4.225 0 019.281 13.5 4.224 4.224 0 0113.5 9.281a4.224 4.224 0 014.219 4.219 4.225 4.225 0 01-4.219 4.219m0-10.969a6.75 6.75 0 100 13.5 6.75 6.75 0 000-13.5M20.756 5.344a.9.9 0 110 1.8.9.9 0 010-1.8"/></g></svg>
