<svg xmlns="http://www.w3.org/2000/svg" width="26.478" height="30.26" viewBox="0 0 26.478 30.26">
  <path id="Icon_awesome-apple-alt" data-name="Icon awesome-apple-alt" d="M20.735,7.624a5.79,5.79,0,0,1,3.778,2.482,11.076,11.076,0,0,1,1.771,4.61,14.7,14.7,0,0,1-.059,5.083,15.97,15.97,0,0,1-2.833,7.033,7.656,7.656,0,0,1-6.375,3.428,4.482,4.482,0,0,1-2.066-.591,3.336,3.336,0,0,0-3.424,0,4.482,4.482,0,0,1-2.066.591,7.656,7.656,0,0,1-6.375-3.428A15.97,15.97,0,0,1,.251,19.8a14.7,14.7,0,0,1-.059-5.083,11.076,11.076,0,0,1,1.771-4.61A5.79,5.79,0,0,1,5.74,7.624a9.861,9.861,0,0,1,3.9.414,16.365,16.365,0,0,1,3.6,1.418,16.365,16.365,0,0,1,3.6-1.418,9.868,9.868,0,0,1,3.9-.414ZM17.488,5.2A5,5,0,0,1,15.3,6.324a6.9,6.9,0,0,1-2.066.3l-.885-.059a7.584,7.584,0,0,1,0-1.891A5.272,5.272,0,0,1,13.71,1.418,5,5,0,0,1,15.894.3,6.9,6.9,0,0,1,17.961,0l.885.059.059.887a6.932,6.932,0,0,1-.295,2.069A5,5,0,0,1,17.488,5.2Z" transform="translate(0.001)" fill="currentColor"/>
</svg>
