<svg xmlns="http://www.w3.org/2000/svg" width="13.233" height="15.747" viewBox="0 0 13.233 15.747">
  <path id="Icon_awesome-apple" data-name="Icon awesome-apple" d="M11.345,10.571A3.282,3.282,0,0,1,13.1,7.59a3.777,3.777,0,0,0-2.978-1.568c-1.248-.1-2.612.728-3.111.728-.527,0-1.737-.693-2.686-.693C2.366,6.089.281,7.622.281,10.74a8.762,8.762,0,0,0,.506,2.855c.45,1.29,2.074,4.454,3.769,4.4.886-.021,1.512-.629,2.665-.629,1.118,0,1.7.629,2.686.629,1.709-.025,3.178-2.9,3.607-4.194a3.485,3.485,0,0,1-2.169-3.231ZM9.355,4.8A3.311,3.311,0,0,0,10.2,2.25,3.728,3.728,0,0,0,7.812,3.477,3.363,3.363,0,0,0,6.912,6,2.953,2.953,0,0,0,9.355,4.8Z" transform="translate(-0.281 -2.25)"/>
</svg>
