<svg xmlns="http://www.w3.org/2000/svg" width="29.807" height="23.184" viewBox="0 0 29.807 23.184">
  <path id="Icon_awesome-pills" data-name="Icon awesome-pills" d="M5.8,2.25A5.793,5.793,0,0,0,0,8.046V19.638a5.8,5.8,0,1,0,11.592,0V8.046A5.793,5.793,0,0,0,5.8,2.25ZM8.28,13.842H3.312v-5.8a2.484,2.484,0,0,1,4.968,0ZM15.509,12.3a.425.425,0,0,0-.637.041,8.232,8.232,0,0,0,11.5,11.5.421.421,0,0,0,.041-.637ZM27.4,11.322A8.251,8.251,0,0,0,16.72,10.5a.421.421,0,0,0-.041.637L27.588,22.044A.425.425,0,0,0,28.224,22,8.244,8.244,0,0,0,27.4,11.322Z" transform="translate(0 -2.25)" fill="currentColor"/>
</svg>
