<svg xmlns="http://www.w3.org/2000/svg" width="32.5" height="22.75" viewBox="0 0 32.5 22.75">
  <path id="Icon_awesome-dumbbell" data-name="Icon awesome-dumbbell" d="M5.281,5.5H2.844A1.216,1.216,0,0,0,1.625,6.719V12H.406A.407.407,0,0,0,0,12.406v2.438a.407.407,0,0,0,.406.406H1.625v5.281A1.216,1.216,0,0,0,2.844,21.75H5.281A1.216,1.216,0,0,0,6.5,20.531V6.719A1.216,1.216,0,0,0,5.281,5.5ZM32.094,12H30.875V6.719A1.216,1.216,0,0,0,29.656,5.5H27.219A1.216,1.216,0,0,0,26,6.719V20.531a1.216,1.216,0,0,0,1.219,1.219h2.438a1.216,1.216,0,0,0,1.219-1.219V15.25h1.219a.407.407,0,0,0,.406-.406V12.406A.407.407,0,0,0,32.094,12ZM23.156,2.25H20.719A1.216,1.216,0,0,0,19.5,3.469V12H13V3.469A1.216,1.216,0,0,0,11.781,2.25H9.344A1.216,1.216,0,0,0,8.125,3.469V23.781A1.216,1.216,0,0,0,9.344,25h2.438A1.216,1.216,0,0,0,13,23.781V15.25h6.5v8.531A1.216,1.216,0,0,0,20.719,25h2.438a1.216,1.216,0,0,0,1.219-1.219V3.469A1.216,1.216,0,0,0,23.156,2.25Z" transform="translate(0 -2.25)" fill="currentColor"/>
</svg>
