<svg xmlns="http://www.w3.org/2000/svg" width="14.87" height="17.342" viewBox="0 0 14.87 17.342">
  <path id="Icon_awesome-android" data-name="Icon awesome-android" d="M4.48,8.928v4.484a1.061,1.061,0,0,1-1.065,1.073A1.156,1.156,0,0,1,2.25,13.412V8.928A1.155,1.155,0,0,1,3.416,7.863,1.069,1.069,0,0,1,4.48,8.928Zm.418,6.08a1.144,1.144,0,0,0,1.146,1.146h.771l.012,2.366a1.069,1.069,0,0,0,2.138,0V16.153h1.441v2.366a1.075,1.075,0,0,0,2.149,0V16.153h.782a1.142,1.142,0,0,0,1.138-1.146V8.06H4.9v6.947Zm9.6-7.323H4.856A4.352,4.352,0,0,1,7.319,3.835l-.74-1.367a.149.149,0,1,1,.259-.147L7.59,3.7a5.232,5.232,0,0,1,4.194,0l.747-1.375a.149.149,0,1,1,.259.147l-.74,1.363A4.362,4.362,0,0,1,14.5,7.685ZM7.892,5.535a.407.407,0,0,0-.407-.407.407.407,0,0,0,0,.813A.407.407,0,0,0,7.892,5.535Zm4.391,0a.4.4,0,1,0-.395.407A.4.4,0,0,0,12.283,5.535Zm3.671,2.327a1.062,1.062,0,0,0-1.065,1.065v4.484a1.068,1.068,0,0,0,1.065,1.073,1.153,1.153,0,0,0,1.166-1.073V8.928A1.147,1.147,0,0,0,15.954,7.863Z" transform="translate(-2.25 -2.245)"/>
</svg>
